<svg width="159" height="62" viewBox="0 0 159 62" fill="none" xmlns="http://www.w3.org/2000/svg">
<g clip-path="url(#clip0_1_2)">
<path d="M9.528 27.288C4.2 27.288 0.864 23.76 0.864 18.144C0.864 12.6 4.392 8.952 9.696 8.952C14.136 8.952 17.328 11.496 17.88 15.48H13.776C13.248 13.704 11.736 12.696 9.6 12.696C6.72 12.696 4.968 14.736 4.968 18.12C4.968 21.456 6.744 23.544 9.6 23.544C11.784 23.544 13.392 22.464 13.872 20.712H17.904C17.28 24.672 13.968 27.288 9.528 27.288ZM22.0845 27H18.0285L24.3645 9.24H28.1565L34.4685 27H30.3405L29.0925 23.256H23.3565L22.0845 27ZM25.7565 16.2L24.4845 19.992H27.9885L26.7165 16.2C26.5245 15.6 26.3085 14.904 26.2365 14.472C26.1645 14.88 25.9725 15.552 25.7565 16.2ZM40.4235 27H36.5355V9.24H43.3995C47.7195 9.24 50.1675 11.328 50.1675 15C50.1675 17.304 49.1835 18.936 47.2155 19.944L50.3355 27H46.0875L43.4235 20.784H40.4235V27ZM40.4235 12.696V17.376H43.3755C45.0795 17.376 46.0635 16.512 46.0635 15C46.0635 13.512 45.1275 12.696 43.3995 12.696H40.4235Z" fill="black"/>
<path d="M75.6686 44.6412C75.7271 47.628 75.7627 50.2103 72.7771 51.7487C70.7767 52.7794 68.5513 53.0682 66.3585 53.2502C63.6274 53.3347 58.8641 52.807 56.7652 50.7121C55.0504 49.0006 55.3099 46.8922 55.3128 44.6412C54.7248 44.2697 54.1707 43.6401 53.6068 43.1986C52.8357 42.595 53.274 40.6261 55.3128 42.878V15.7674C55.3118 13.6022 54.9809 11.9411 56.5235 10.2556C57.9632 8.6823 59.7672 8.86745 61.6645 8.8677L64.6502 8.86842L69.1428 8.86794C71.1165 8.86733 72.8212 8.67685 74.3769 10.204C75.9617 11.7595 75.6687 13.8352 75.6682 15.9276L75.6686 42.878C77.7447 40.6721 78.0382 42.4712 77.7152 42.8186C77.106 43.474 76.3464 44.0465 75.6686 44.6412ZM65.9404 51.8476C67.685 51.7461 68.9349 51.5906 70.651 51.0798C70.6493 50.4282 70.6134 49.6209 70.6841 48.9772C70.7291 48.5666 71.5602 48.3064 71.8015 48.7103C72.0936 49.1426 71.9785 50.0334 71.981 50.5598C74.5573 49.3118 74.3145 47.419 74.3102 44.8478L74.3094 40.037H73.4952C72.8418 42.9885 67.1026 42.9618 64.8656 42.9562C62.6281 42.8418 58.1432 42.754 57.5184 39.9413H56.661L56.6608 44.9064C56.6606 47.0894 56.476 49.8726 59.0821 50.5598C59.0634 50.0408 58.944 49.0483 59.277 48.6552C59.526 48.3613 59.9794 48.5149 60.2036 48.7689C60.4662 49.0667 60.3673 50.6178 60.366 51.0798C62.1779 51.6159 64.0551 51.897 65.9404 51.8476ZM66.6131 41.57C67.6789 41.4534 71.2951 41.1546 71.9553 40.2622C72.3631 39.7111 72.2003 38.9982 72.1343 38.3615C71.8316 35.4423 71.5775 32.5086 71.3679 29.581C69.54 30.3762 66.2621 30.3362 64.326 30.3403C62.5294 30.1574 61.4759 30.054 59.7211 29.581C59.3474 32.6676 58.9363 36.4537 58.786 39.5524C58.6903 41.5243 65.1543 41.6254 66.6131 41.57ZM74.3094 38.6331C74.3364 36.7624 74.3096 34.8077 74.3096 32.9306L74.3094 21.5438L73.4952 22.5956C73.2288 22.9379 72.8355 23.4086 72.6028 23.7571L72.6024 26.866C72.6027 28.4008 72.7054 29.7008 72.8399 31.2348L73.2908 36.8877C73.3263 37.3542 73.3847 38.1918 73.4952 38.6331C73.7666 38.6346 74.0382 38.6373 74.3094 38.6331ZM57.5184 38.5481C57.5918 38.1959 57.6222 37.6267 57.6561 37.2476L58.3057 30.4889C58.5236 28.1968 58.5207 26.3025 58.4833 23.9842C58.4772 23.6112 57.3905 22.2854 57.1459 21.9894C56.9838 21.789 56.8327 21.604 56.661 21.4117V38.5481C56.9455 38.5543 57.2348 38.5661 57.5184 38.5481ZM65.9404 28.9492C67.2738 28.9151 70.036 28.7426 71.2514 28.1648L71.2492 25.3662C71.2464 23.0611 71.2527 23.2196 72.6722 21.4195L73.5268 20.3297C73.7303 20.0732 74.0036 19.7497 74.1739 19.4827C73.2545 18.1899 72.0776 16.7048 71.0481 15.4688H65.1975H60.1942C59.2386 16.8104 58.0201 18.2457 57.0049 19.5839C57.8111 20.6313 58.6493 21.6856 59.4242 22.759C59.9353 23.4671 59.8334 24.5692 59.8331 25.4252L59.8322 28.1648C61.6781 28.6427 64.0139 29.0849 65.9404 28.9492ZM56.661 17.7688C57.0469 17.3506 57.3501 16.9185 57.6984 16.4662L59.0821 14.6807C59.0805 14.019 59.0381 13.1433 59.1136 12.4965C59.1928 11.8185 60.4582 11.8484 60.4186 12.6765C60.3922 13.104 60.4151 13.6911 60.366 14.0968H70.651C70.6482 13.6601 70.6484 13.1433 70.6471 12.7552C70.6448 12.0827 71.3843 11.7697 71.7813 12.2181C72.1245 12.6056 71.9315 13.9561 71.981 14.4186C72.6154 15.2667 73.4997 16.5182 74.1739 17.235L74.3094 17.3823L74.3109 14.834C74.3127 11.3255 73.6143 10.2651 70.1208 10.2628L60.069 10.2635C57.8209 10.2747 56.6159 11.5468 56.6607 13.895C56.6853 15.1801 56.6295 16.4853 56.661 17.7688Z" fill="black"/>
<path d="M80.864 14.4C80.864 11.184 83.576 8.904 87.392 8.904C91.208 8.904 93.608 11.016 93.608 14.376H89.744C89.744 13.128 88.808 12.36 87.344 12.36C85.76 12.36 84.752 13.08 84.752 14.256C84.752 15.336 85.304 15.864 86.552 16.128L89.216 16.68C92.384 17.328 93.896 18.84 93.896 21.648C93.896 25.08 91.208 27.312 87.128 27.312C83.168 27.312 80.6 25.176 80.6 21.84H84.464C84.464 23.136 85.424 23.856 87.152 23.856C88.904 23.856 90.008 23.16 90.008 22.032C90.008 21.048 89.552 20.544 88.376 20.304L85.664 19.752C82.496 19.104 80.864 17.304 80.864 14.4ZM103.673 21.096H100.361V27H96.473V9.24H103.673C107.297 9.24 109.721 11.616 109.721 15.168C109.721 18.72 107.297 21.096 103.673 21.096ZM102.809 12.696H100.361V17.64H102.809C104.681 17.64 105.617 16.824 105.617 15.168C105.617 13.512 104.681 12.696 102.809 12.696ZM113.522 27H109.466L115.802 9.24H119.594L125.906 27H121.778L120.53 23.256H114.794L113.522 27ZM117.194 16.2L115.922 19.992H119.426L118.154 16.2C117.962 15.6 117.746 14.904 117.674 14.472C117.602 14.88 117.41 15.552 117.194 16.2ZM134.692 27.288C129.364 27.288 126.028 23.76 126.028 18.144C126.028 12.6 129.556 8.952 134.86 8.952C139.3 8.952 142.492 11.496 143.044 15.48H138.94C138.412 13.704 136.9 12.696 134.764 12.696C131.884 12.696 130.132 14.736 130.132 18.12C130.132 21.456 131.908 23.544 134.764 23.544C136.948 23.544 138.556 22.464 139.036 20.712H143.068C142.444 24.672 139.132 27.288 134.692 27.288ZM156.948 27H145.668V9.24H156.948V12.84H149.556V16.32H156.108V19.728H149.556V23.4H156.948V27Z" fill="black"/>
</g>
<defs>
<clipPath id="clip0_1_2">
<rect width="159" height="62" fill="white"/>
</clipPath>
</defs>
</svg>
